<mxfile host="app.diagrams.net" modified="2023-10-30T03:04:57.059Z" agent="Mozilla/5.0 (Macintosh; Intel Mac OS X 10.15; rv:109.0) Gecko/20100101 Firefox/119.0" etag="7fP4F7OhFTNHQ-A0AegM" version="22.0.8" type="github">
  <diagram name="Page-1" id="g1DNczJESFWlzC8GzXev">
    <mxGraphModel dx="613" dy="489" grid="1" gridSize="10" guides="1" tooltips="1" connect="1" arrows="1" fold="1" page="1" pageScale="1" pageWidth="850" pageHeight="1100" math="0" shadow="0">
      <root>
        <mxCell id="0" />
        <mxCell id="1" parent="0" />
        <mxCell id="Dq7d_9lWhd6yYBvcdl_9-1" value="AWS Step Functions workflow" style="points=[[0,0],[0.25,0],[0.5,0],[0.75,0],[1,0],[1,0.25],[1,0.5],[1,0.75],[1,1],[0.75,1],[0.5,1],[0.25,1],[0,1],[0,0.75],[0,0.5],[0,0.25]];outlineConnect=0;gradientColor=none;html=1;whiteSpace=wrap;fontSize=12;fontStyle=0;container=1;pointerEvents=0;collapsible=0;recursiveResize=0;shape=mxgraph.aws4.group;grIcon=mxgraph.aws4.group_aws_step_functions_workflow;strokeColor=#CD2264;fillColor=none;verticalAlign=top;align=left;spacingLeft=30;fontColor=#CD2264;dashed=0;" vertex="1" parent="1">
          <mxGeometry x="50" y="50" width="400" height="394" as="geometry" />
        </mxCell>
        <mxCell id="Dq7d_9lWhd6yYBvcdl_9-3" value="Wait until game start" style="rounded=1;whiteSpace=wrap;html=1;" vertex="1" parent="Dq7d_9lWhd6yYBvcdl_9-1">
          <mxGeometry x="5" y="100" width="120" height="60" as="geometry" />
        </mxCell>
        <mxCell id="Dq7d_9lWhd6yYBvcdl_9-6" value="Game Today?" style="edgeStyle=orthogonalEdgeStyle;rounded=0;orthogonalLoop=1;jettySize=auto;html=1;entryX=0.5;entryY=0;entryDx=0;entryDy=0;" edge="1" parent="Dq7d_9lWhd6yYBvcdl_9-1" source="Dq7d_9lWhd6yYBvcdl_9-4" target="Dq7d_9lWhd6yYBvcdl_9-3">
          <mxGeometry relative="1" as="geometry" />
        </mxCell>
        <mxCell id="Dq7d_9lWhd6yYBvcdl_9-4" value="" style="sketch=0;points=[[0,0,0],[0.25,0,0],[0.5,0,0],[0.75,0,0],[1,0,0],[0,1,0],[0.25,1,0],[0.5,1,0],[0.75,1,0],[1,1,0],[0,0.25,0],[0,0.5,0],[0,0.75,0],[1,0.25,0],[1,0.5,0],[1,0.75,0]];outlineConnect=0;fontColor=#232F3E;fillColor=#E7157B;strokeColor=#ffffff;dashed=0;verticalLabelPosition=bottom;verticalAlign=top;align=center;html=1;fontSize=12;fontStyle=0;aspect=fixed;shape=mxgraph.aws4.resourceIcon;resIcon=mxgraph.aws4.eventbridge;" vertex="1" parent="Dq7d_9lWhd6yYBvcdl_9-1">
          <mxGeometry x="50" y="30" width="30" height="30" as="geometry" />
        </mxCell>
        <mxCell id="Dq7d_9lWhd6yYBvcdl_9-8" value="&lt;div&gt;[While Game != EndGame]&lt;/div&gt;&lt;div&gt;Call Lambda Fetch Game Results&lt;br&gt;&lt;/div&gt;" style="points=[[0.25,0,0],[0.5,0,0],[0.75,0,0],[1,0.25,0],[1,0.5,0],[1,0.75,0],[0.75,1,0],[0.5,1,0],[0.25,1,0],[0,0.75,0],[0,0.5,0],[0,0.25,0]];shape=mxgraph.bpmn.task;whiteSpace=wrap;rectStyle=rounded;size=10;html=1;container=1;expand=0;collapsible=0;taskMarker=abstract;isLoopStandard=1;" vertex="1" parent="Dq7d_9lWhd6yYBvcdl_9-1">
          <mxGeometry x="5" y="220" width="120" height="80" as="geometry" />
        </mxCell>
        <mxCell id="Dq7d_9lWhd6yYBvcdl_9-9" value="Game start time start checking for data" style="edgeStyle=orthogonalEdgeStyle;rounded=0;orthogonalLoop=1;jettySize=auto;html=1;entryX=0.5;entryY=0;entryDx=0;entryDy=0;entryPerimeter=0;" edge="1" parent="Dq7d_9lWhd6yYBvcdl_9-1" source="Dq7d_9lWhd6yYBvcdl_9-3" target="Dq7d_9lWhd6yYBvcdl_9-8">
          <mxGeometry relative="1" as="geometry" />
        </mxCell>
        <mxCell id="Dq7d_9lWhd6yYBvcdl_9-10" value="Fetch Game Data" style="outlineConnect=0;dashed=0;verticalLabelPosition=bottom;verticalAlign=top;align=center;html=1;shape=mxgraph.aws3.lambda_function;fillColor=#F58534;gradientColor=none;" vertex="1" parent="Dq7d_9lWhd6yYBvcdl_9-1">
          <mxGeometry x="170" y="239" width="39" height="42" as="geometry" />
        </mxCell>
        <mxCell id="Dq7d_9lWhd6yYBvcdl_9-13" style="edgeStyle=orthogonalEdgeStyle;rounded=0;orthogonalLoop=1;jettySize=auto;html=1;entryX=0;entryY=0.5;entryDx=0;entryDy=0;entryPerimeter=0;" edge="1" parent="Dq7d_9lWhd6yYBvcdl_9-1" source="Dq7d_9lWhd6yYBvcdl_9-8" target="Dq7d_9lWhd6yYBvcdl_9-10">
          <mxGeometry relative="1" as="geometry" />
        </mxCell>
        <mxCell id="Dq7d_9lWhd6yYBvcdl_9-14" value="&lt;div&gt;GameData&lt;/div&gt;" style="outlineConnect=0;dashed=0;verticalLabelPosition=bottom;verticalAlign=top;align=center;html=1;shape=mxgraph.aws3.dynamo_db;fillColor=#2E73B8;gradientColor=none;" vertex="1" parent="Dq7d_9lWhd6yYBvcdl_9-1">
          <mxGeometry x="270" y="230" width="42" height="50" as="geometry" />
        </mxCell>
        <mxCell id="Dq7d_9lWhd6yYBvcdl_9-15" style="edgeStyle=orthogonalEdgeStyle;rounded=0;orthogonalLoop=1;jettySize=auto;html=1;entryX=0;entryY=0.5;entryDx=0;entryDy=0;entryPerimeter=0;" edge="1" parent="Dq7d_9lWhd6yYBvcdl_9-1" source="Dq7d_9lWhd6yYBvcdl_9-10" target="Dq7d_9lWhd6yYBvcdl_9-14">
          <mxGeometry relative="1" as="geometry" />
        </mxCell>
        <mxCell id="Dq7d_9lWhd6yYBvcdl_9-16" value="Store Game Data" style="edgeLabel;html=1;align=center;verticalAlign=middle;resizable=0;points=[];" vertex="1" connectable="0" parent="Dq7d_9lWhd6yYBvcdl_9-15">
          <mxGeometry x="-0.0076" y="-1" relative="1" as="geometry">
            <mxPoint x="1" y="13" as="offset" />
          </mxGeometry>
        </mxCell>
        <mxCell id="Dq7d_9lWhd6yYBvcdl_9-17" value="Website access game data to display" style="outlineConnect=0;dashed=0;verticalLabelPosition=bottom;verticalAlign=top;align=center;html=1;shape=mxgraph.aws3.api_gateway;fillColor=#D9A741;gradientColor=none;" vertex="1" parent="1">
          <mxGeometry x="520" y="273.5" width="76.5" height="63" as="geometry" />
        </mxCell>
        <mxCell id="Dq7d_9lWhd6yYBvcdl_9-22" style="edgeStyle=orthogonalEdgeStyle;rounded=0;orthogonalLoop=1;jettySize=auto;html=1;entryX=1;entryY=0.5;entryDx=0;entryDy=0;entryPerimeter=0;" edge="1" parent="1" source="Dq7d_9lWhd6yYBvcdl_9-17" target="Dq7d_9lWhd6yYBvcdl_9-14">
          <mxGeometry relative="1" as="geometry" />
        </mxCell>
      </root>
    </mxGraphModel>
  </diagram>
</mxfile>
